<mxfile host="app.diagrams.net" agent="Mozilla/5.0 (Macintosh; Intel Mac OS X 10_15_7) AppleWebKit/537.36 (KHTML, like Gecko) Chrome/138.0.0.0 Safari/537.36" version="26.2.13">
  <diagram name="第 1 页" id="aTLJK9wpf1UJ92ZQJV74">
    <mxGraphModel>
      <root>
        <mxCell id="0" />
        <mxCell id="1" parent="0" />
        <mxCell id="2" value="缓存系统" style="whiteSpace=wrap;strokeWidth=2;verticalAlign=top;" vertex="1" parent="1">
          <mxGeometry x="8" y="8" width="210" height="258" as="geometry" />
        </mxCell>
        <mxCell id="3" value="Redis" style="whiteSpace=wrap;strokeWidth=2;" vertex="1" parent="2">
          <mxGeometry x="64" y="46" width="97" height="54" as="geometry" />
        </mxCell>
        <mxCell id="4" value="缓存键值对" style="whiteSpace=wrap;strokeWidth=2;" vertex="1" parent="2">
          <mxGeometry x="43" y="175" width="140" height="54" as="geometry" />
        </mxCell>
        <mxCell id="5" value="" style="curved=1;startArrow=none;endArrow=block;exitX=0.51;exitY=0.99;entryX=0.5;entryY=-0.01;" edge="1" parent="2" source="3" target="4">
          <mxGeometry relative="1" as="geometry">
            <Array as="points" />
          </mxGeometry>
        </mxCell>
        <mxCell id="6" value="数据库" style="whiteSpace=wrap;strokeWidth=2;verticalAlign=top;" vertex="1" parent="1">
          <mxGeometry x="268" y="8" width="300" height="258" as="geometry" />
        </mxCell>
        <mxCell id="7" value="MySQL" style="whiteSpace=wrap;strokeWidth=2;" vertex="1" parent="6">
          <mxGeometry x="105" y="46" width="106" height="54" as="geometry" />
        </mxCell>
        <mxCell id="8" value="表1" style="whiteSpace=wrap;strokeWidth=2;" vertex="1" parent="6">
          <mxGeometry x="48" y="175" width="84" height="54" as="geometry" />
        </mxCell>
        <mxCell id="9" value="表2" style="whiteSpace=wrap;strokeWidth=2;" vertex="1" parent="6">
          <mxGeometry x="183" y="175" width="84" height="54" as="geometry" />
        </mxCell>
        <mxCell id="10" value="" style="curved=1;startArrow=none;endArrow=block;exitX=0.23;exitY=0.99;entryX=0.51;entryY=-0.01;" edge="1" parent="6" source="7" target="8">
          <mxGeometry relative="1" as="geometry">
            <Array as="points">
              <mxPoint x="91" y="137" />
            </Array>
          </mxGeometry>
        </mxCell>
        <mxCell id="11" value="" style="curved=1;startArrow=none;endArrow=block;exitX=0.76;exitY=0.99;entryX=0.5;entryY=-0.01;" edge="1" parent="6" source="7" target="9">
          <mxGeometry relative="1" as="geometry">
            <Array as="points">
              <mxPoint x="225" y="137" />
            </Array>
          </mxGeometry>
        </mxCell>
        <mxCell id="12" value="后端服务器" style="whiteSpace=wrap;strokeWidth=2;verticalAlign=top;" vertex="1" parent="1">
          <mxGeometry x="618" y="8" width="343" height="258" as="geometry" />
        </mxCell>
        <mxCell id="13" value="Node.js" style="whiteSpace=wrap;strokeWidth=2;" vertex="1" parent="12">
          <mxGeometry x="123" y="46" width="115" height="54" as="geometry" />
        </mxCell>
        <mxCell id="14" value="Express" style="whiteSpace=wrap;strokeWidth=2;" vertex="1" parent="12">
          <mxGeometry x="43" y="175" width="113" height="54" as="geometry" />
        </mxCell>
        <mxCell id="15" value="中间件" style="whiteSpace=wrap;strokeWidth=2;" vertex="1" parent="12">
          <mxGeometry x="207" y="175" width="108" height="54" as="geometry" />
        </mxCell>
        <mxCell id="16" value="" style="curved=1;startArrow=none;endArrow=block;exitX=0.21;exitY=0.99;entryX=0.5;entryY=-0.01;" edge="1" parent="12" source="13" target="14">
          <mxGeometry relative="1" as="geometry">
            <Array as="points">
              <mxPoint x="100" y="137" />
            </Array>
          </mxGeometry>
        </mxCell>
        <mxCell id="17" value="" style="curved=1;startArrow=none;endArrow=block;exitX=0.79;exitY=0.99;entryX=0.5;entryY=-0.01;" edge="1" parent="12" source="13" target="15">
          <mxGeometry relative="1" as="geometry">
            <Array as="points">
              <mxPoint x="261" y="137" />
            </Array>
          </mxGeometry>
        </mxCell>
        <mxCell id="18" value="前端应用" style="whiteSpace=wrap;strokeWidth=2;verticalAlign=top;" vertex="1" parent="1">
          <mxGeometry x="1011" y="8" width="505" height="258" as="geometry" />
        </mxCell>
        <mxCell id="19" value="React" style="whiteSpace=wrap;strokeWidth=2;" vertex="1" parent="18">
          <mxGeometry x="208" y="46" width="100" height="54" as="geometry" />
        </mxCell>
        <mxCell id="20" value="Redux" style="whiteSpace=wrap;strokeWidth=2;" vertex="1" parent="18">
          <mxGeometry x="43" y="175" width="103" height="54" as="geometry" />
        </mxCell>
        <mxCell id="21" value="图表组件" style="whiteSpace=wrap;strokeWidth=2;" vertex="1" parent="18">
          <mxGeometry x="196" y="175" width="124" height="54" as="geometry" />
        </mxCell>
        <mxCell id="22" value="样式库" style="whiteSpace=wrap;strokeWidth=2;" vertex="1" parent="18">
          <mxGeometry x="370" y="175" width="108" height="54" as="geometry" />
        </mxCell>
        <mxCell id="23" value="" style="curved=1;startArrow=none;endArrow=block;exitX=0;exitY=0.86;entryX=0.5;entryY=-0.01;" edge="1" parent="18" source="19" target="20">
          <mxGeometry relative="1" as="geometry">
            <Array as="points">
              <mxPoint x="95" y="137" />
            </Array>
          </mxGeometry>
        </mxCell>
        <mxCell id="24" value="" style="curved=1;startArrow=none;endArrow=block;exitX=0.5;exitY=0.99;entryX=0.5;entryY=-0.01;" edge="1" parent="18" source="19" target="21">
          <mxGeometry relative="1" as="geometry">
            <Array as="points" />
          </mxGeometry>
        </mxCell>
        <mxCell id="25" value="" style="curved=1;startArrow=none;endArrow=block;exitX=1;exitY=0.85;entryX=0.5;entryY=-0.01;" edge="1" parent="18" source="19" target="22">
          <mxGeometry relative="1" as="geometry">
            <Array as="points">
              <mxPoint x="424" y="137" />
            </Array>
          </mxGeometry>
        </mxCell>
        <mxCell id="26" value="用户" style="whiteSpace=wrap;strokeWidth=2;" vertex="1" parent="1">
          <mxGeometry x="1566" y="110" width="92" height="54" as="geometry" />
        </mxCell>
        <mxCell id="27" value="前端应用" style="whiteSpace=wrap;strokeWidth=2;" vertex="1" parent="1">
          <mxGeometry x="1550" y="339" width="124" height="54" as="geometry" />
        </mxCell>
        <mxCell id="28" value="后端服务器" style="whiteSpace=wrap;strokeWidth=2;" vertex="1" parent="1">
          <mxGeometry x="1542" y="465" width="140" height="54" as="geometry" />
        </mxCell>
        <mxCell id="29" value="数据库" style="whiteSpace=wrap;strokeWidth=2;" vertex="1" parent="1">
          <mxGeometry x="1414" y="592" width="108" height="54" as="geometry" />
        </mxCell>
        <mxCell id="30" value="缓存系统" style="whiteSpace=wrap;strokeWidth=2;" vertex="1" parent="1">
          <mxGeometry x="1594" y="592" width="124" height="54" as="geometry" />
        </mxCell>
        <mxCell id="31" value="发送请求" style="curved=1;startArrow=none;endArrow=block;exitX=0.42;exitY=1;entryX=0.35;entryY=-0.01;" edge="1" parent="1" source="26" target="27">
          <mxGeometry relative="1" as="geometry">
            <Array as="points">
              <mxPoint x="1568" y="302" />
            </Array>
          </mxGeometry>
        </mxCell>
        <mxCell id="32" value="API调用" style="curved=1;startArrow=none;endArrow=block;exitX=0.36;exitY=0.99;entryX=0.37;entryY=0;" edge="1" parent="1" source="27" target="28">
          <mxGeometry relative="1" as="geometry">
            <Array as="points">
              <mxPoint x="1570" y="429" />
            </Array>
          </mxGeometry>
        </mxCell>
        <mxCell id="33" value="数据库查询" style="curved=1;startArrow=none;endArrow=block;exitX=0;exitY=0.93;entryX=0.31;entryY=-0.01;" edge="1" parent="1" source="28" target="29">
          <mxGeometry relative="1" as="geometry">
            <Array as="points">
              <mxPoint x="1420" y="555" />
            </Array>
          </mxGeometry>
        </mxCell>
        <mxCell id="34" value="缓存查询" style="curved=1;startArrow=none;endArrow=block;exitX=0.48;exitY=1;entryX=0.32;entryY=-0.01;" edge="1" parent="1" source="28" target="30">
          <mxGeometry relative="1" as="geometry">
            <Array as="points">
              <mxPoint x="1604" y="555" />
            </Array>
          </mxGeometry>
        </mxCell>
        <mxCell id="35" value="返回数据" style="curved=1;startArrow=none;endArrow=block;exitX=0.69;exitY=-0.01;entryX=0.21;entryY=1;" edge="1" parent="1" source="29" target="28">
          <mxGeometry relative="1" as="geometry">
            <Array as="points">
              <mxPoint x="1516" y="555" />
            </Array>
          </mxGeometry>
        </mxCell>
        <mxCell id="36" value="返回缓存数据" style="curved=1;startArrow=none;endArrow=block;exitX=0.68;exitY=-0.01;entryX=0.79;entryY=1;" edge="1" parent="1" source="30" target="28">
          <mxGeometry relative="1" as="geometry">
            <Array as="points">
              <mxPoint x="1708" y="555" />
            </Array>
          </mxGeometry>
        </mxCell>
        <mxCell id="37" value="返回响应" style="curved=1;startArrow=none;endArrow=block;exitX=0.63;exitY=0;entryX=0.64;entryY=0.99;" edge="1" parent="1" source="28" target="27">
          <mxGeometry relative="1" as="geometry">
            <Array as="points">
              <mxPoint x="1654" y="429" />
            </Array>
          </mxGeometry>
        </mxCell>
        <mxCell id="38" value="展示数据" style="curved=1;startArrow=none;endArrow=block;exitX=0.65;exitY=-0.01;entryX=0.58;entryY=1;" edge="1" parent="1" source="27" target="26">
          <mxGeometry relative="1" as="geometry">
            <Array as="points">
              <mxPoint x="1656" y="302" />
            </Array>
          </mxGeometry>
        </mxCell>
      </root>
    </mxGraphModel>
  </diagram>
</mxfile>
